<?xml version="1.0" encoding="utf-8"?>
<!-- Generator: Adobe Illustrator 15.0.2, SVG Export Plug-In . SVG Version: 6.00 Build 0)  -->
<!DOCTYPE svg PUBLIC "-//W3C//DTD SVG 1.1//EN" "http://www.w3.org/Graphics/SVG/1.1/DTD/svg11.dtd">
<svg version="1.1" id="Layer_1" xmlns:sketch="http://www.bohemiancoding.com/sketch/ns"
	 xmlns="http://www.w3.org/2000/svg" xmlns:xlink="http://www.w3.org/1999/xlink" x="0px" y="0px" width="238px" height="85px"
	 viewBox="0 -6 238 85" enable-background="new 0 -6 238 85" xml:space="preserve">
<title>staffpoint logo</title>
<description>Created with Sketch (http://www.bohemiancoding.com/sketch)</description>
<g id="Page-1" sketch:type="MSPage">
	<g id="staffpoint-logo" sketch:type="MSArtboardGroup">
		<g transform="translate(0.000000, 0.200000)" sketch:type="MSLayerGroup">
			<path id="Fill-1" sketch:type="MSShapeGroup" fill="#0DB14B" d="M100.912,25.787c-2.485,2.356-3.491,6.066-3.491,9.776v1.239
				H86.887v-1.002c0-3.593,0.947-6.361,4.261-6.361c1.005,0,1.953,0.236,2.663,0.589l1.183-5.418
				c-0.887-0.413-2.426-0.825-3.964-0.825c-3.669,0-6.333,1.119-8.108,2.945c-2.308,2.356-3.255,5.771-3.255,9.482v0.59h-3.906
				v5.418h3.906v23.264h7.279V42.22h10.475v23.264h7.279V42.22h6.273v-5.418h-6.333v-1.474c0-3.534,1.243-6.537,4.853-6.537
				c1.361,0,2.308,0.235,3.077,0.53l0.533-5.595c-1.125-0.353-2.723-0.707-4.617-0.707
				C105.943,23.018,103.042,23.784,100.912,25.787"/>
			<path id="Fill-2" sketch:type="MSShapeGroup" fill="#0DB14B" d="M15.913,42.396c-5.326-2.061-7.634-3.475-7.634-6.538
				c0-2.355,1.953-4.771,6.569-4.771c3.728,0,6.51,1.12,7.989,1.886l1.716-5.831c-2.072-1.06-5.208-2.002-9.528-2.002
				c-8.699,0-14.144,4.889-14.144,11.426c0,5.713,4.202,9.188,10.83,11.543c5.03,1.826,7.042,3.594,7.042,6.598
				c0,3.238-2.604,5.418-7.22,5.418c-3.728,0-7.338-1.178-9.646-2.533L0.23,63.599c2.189,1.355,6.569,2.533,10.83,2.533
				c10.238,0,15.09-5.537,15.09-11.957C26.151,48.462,22.837,44.987,15.913,42.396"/>
			<path id="Fill-3" sketch:type="MSShapeGroup" fill="#0DB14B" d="M38.693,29.438l-7.161,2.003v5.361h-4.083v5.418h4.083v13.486
				c0,3.77,0.71,6.42,2.308,8.07c1.362,1.471,3.551,2.355,6.273,2.355c2.249,0,4.202-0.354,5.267-0.766l-0.118-5.479
				c-0.829,0.236-1.539,0.295-2.841,0.295c-2.781,0-3.728-1.768-3.728-5.301V42.22h6.924v-5.418h-6.924V29.438"/>
			<path id="Fill-4" sketch:type="MSShapeGroup" fill="#0DB14B" d="M72.66,48.286c0-6.303-2.663-12.133-11.895-12.133
				c-4.557,0-8.285,1.237-10.416,2.532l1.42,4.713c1.953-1.238,4.912-2.121,7.752-2.121c5.089,0,5.859,3.121,5.859,5.006v0.473
				c-10.652-0.059-17.103,3.65-17.103,10.836c0,4.359,3.255,8.541,9.054,8.541c3.788,0,6.806-1.59,8.522-3.828h0.177l0.532,3.18
				h6.569c-0.355-1.768-0.474-4.299-0.474-6.891V48.286L72.66,48.286z M65.559,55.413c0,0.529,0,1.059-0.178,1.59
				c-0.71,2.061-2.781,3.945-5.74,3.945c-2.309,0-4.143-1.295-4.143-4.123c0-4.357,4.912-5.418,10.061-5.359V55.413L65.559,55.413z"
				/>
			<path id="Fill-5" sketch:type="MSShapeGroup" fill="#0DB14B" d="M206.188,36.153c-4.795,0-7.931,2.709-9.232,4.948h-0.178
				l-0.355-4.299h-6.332c0.119,2.473,0.236,5.24,0.236,8.539v20.143h7.279V48.579c0-0.824,0.119-1.707,0.355-2.297
				c0.77-2.178,2.781-4.24,5.682-4.24c3.965,0,5.503,3.123,5.503,7.244v16.197h7.28V48.462
				C216.426,39.392,211.217,36.153,206.188,36.153"/>
			<path id="Fill-6" sketch:type="MSShapeGroup" fill="#0DB14B" d="M237.672,42.22v-5.418h-6.924v-7.364l-7.16,2.003v5.361h-4.084
				v5.418h4.084v13.486c0,3.77,0.709,6.42,2.308,8.07c1.36,1.471,3.55,2.355,6.272,2.355c2.249,0,4.202-0.354,5.268-0.766
				l-0.119-5.479c-0.828,0.236-1.538,0.295-2.84,0.295c-2.781,0-3.729-1.768-3.729-5.301V42.22H237.672"/>
			<path id="Fill-7" sketch:type="MSShapeGroup" fill="#0DB14B" d="M140.326,28.732c-2.544-2.121-6.391-3.24-11.717-3.24
				c-4.853,0-8.463,0.354-11.126,0.825v39.167h7.22V50.466c1.006,0.234,2.189,0.293,3.551,0.293c5.148,0,9.646-1.412,12.605-4.299
				c2.189-2.121,3.373-5.184,3.373-8.953C144.232,33.797,142.693,30.675,140.326,28.732L140.326,28.732z M128.254,45.105
				c-1.479,0-2.604-0.059-3.551-0.354v-13.31c0.77-0.177,2.189-0.354,4.202-0.354c5.03,0,8.107,2.298,8.107,6.715
				C137.013,42.396,133.699,45.105,128.254,45.105L128.254,45.105z"/>
			<path id="Fill-8" sketch:type="MSShapeGroup" fill="#0DB14B" d="M157.547,36.153c-8.699,0-14.913,5.772-14.913,15.196
				c0,9.246,6.333,14.783,14.44,14.783c7.338,0,14.795-4.711,14.795-15.254C171.869,42.159,166.129,36.153,157.547,36.153
				L157.547,36.153z M157.311,60.89c-4.379,0-7.16-4.182-7.16-9.719c0-4.77,2.07-9.775,7.219-9.775c4.972,0,6.984,5.182,6.984,9.658
				C164.354,56.884,161.453,60.89,157.311,60.89L157.311,60.89z"/>
			<path id="Fill-9" sketch:type="MSShapeGroup" fill="#0DB14B" d="M176.49,36.802h7.279v28.682h-7.279V36.802z"/>
			<path id="Fill-10" sketch:type="MSShapeGroup" fill="#F6821F" d="M198.93,12.6c0,10.383-8.417,18.8-18.801,18.8
				c-10.383,0-18.799-8.417-18.799-18.8c0-10.383,8.416-18.8,18.799-18.8C190.513-6.2,198.93,2.217,198.93,12.6"/>
			<path id="Fill-11" sketch:type="MSShapeGroup" fill="#F6821F" d="M212.877,4.293c0,3.463-2.798,6.271-6.25,6.271
				s-6.25-2.807-6.25-6.271s2.798-6.271,6.25-6.271S212.877,0.829,212.877,4.293"/>
		</g>
	</g>
</g>
</svg>
